<svg id="Capa_1" data-name="Capa 1" xmlns="http://www.w3.org/2000/svg" viewBox="0 0 250 68.27"><defs><style>.cls-1{fill-rule:evenodd;}</style></defs><path class="cls-1" d="M38.31,49l13.9-28.57H67.83L81.92,49H57.16l-3-5.91H68.59L60.21,26.13,48.78,49ZM4,49.75H28.11a14.3,14.3,0,1,0,0-28.59H4V49.75Zm10.29-5.93V27.07h9.23a8.4,8.4,0,0,1,0,16.79H14.31v0Zm143.42-23.4-7.62,18.09L144.4,26.32l2.67-6.09H133l2.86,5.9-5.91,12.38L122.3,20.42H83.07V49h31V43.08H93.92V37.94h17.72V31.66H94.11v-5h21.72L125,49h8.38L140,35.28l6.66,13.9h8.39l12-28.76ZM225,17.7c-10.14,0-18.59,5.61-20.57,13.08-2-7.47-10.44-13.08-20.57-13.08-11.61,0-21,7.36-21,16.43s9.4,16.43,21,16.43c10.13,0,18.59-5.61,20.57-13.08,2,7.47,10.43,13.08,20.57,13.08,11.6,0,21-7.35,21-16.43S236.57,17.7,225,17.7Zm0,27.21c-5.36,0-9.7-4.83-9.7-10.78s4.34-10.77,9.7-10.77,9.7,4.82,9.7,10.77-4.35,10.78-9.7,10.78Zm-41.14,0c-5.36,0-9.7-4.83-9.7-10.78s4.34-10.77,9.7-10.77,9.69,4.82,9.69,10.77-4.34,10.78-9.69,10.78Z"/></svg>