<svg id="Capa_1" data-name="Capa 1" xmlns="http://www.w3.org/2000/svg" viewBox="0 0 250 68.27"><defs><style>.cls-1{fill:#fff;fill-rule:evenodd;}</style></defs><path class="cls-1" d="M39,49l13.9-28.57H68.56L82.66,49H57.9l-3-5.91H69.33L60.94,26.13,49.52,49Zm-34.28.76H28.85a14.3,14.3,0,1,0,0-28.59H4.76V49.75ZM15,43.82V27.07h9.24a8.4,8.4,0,0,1,0,16.79H15v0Zm143.43-23.4-7.62,18.09-5.72-12.19,2.67-6.09H133.7l2.86,5.9-5.9,12.38L123,20.42H83.8V49h31.05V43.08H94.66V37.94h17.71V31.66H94.85v-5h21.71L125.71,49h8.38l6.66-13.71,6.67,13.9h8.38l12-28.76ZM225.7,17.7c-10.13,0-18.59,5.61-20.57,13.08-2-7.47-10.43-13.08-20.57-13.08-11.6,0-21,7.36-21,16.43s9.41,16.43,21,16.43c10.14,0,18.59-5.61,20.57-13.08,2,7.47,10.44,13.08,20.57,13.08,11.61,0,21-7.35,21-16.43s-9.4-16.43-21-16.43Zm0,27.21c-5.35,0-9.69-4.83-9.69-10.78s4.34-10.77,9.69-10.77,9.7,4.82,9.7,10.77-4.34,10.78-9.7,10.78Zm-41.14,0c-5.35,0-9.7-4.83-9.7-10.78s4.35-10.77,9.7-10.77,9.7,4.82,9.7,10.77-4.34,10.78-9.7,10.78Z"/></svg>